<svg width="52" height="52" viewBox="0 0 52 52" fill="none" xmlns="http://www.w3.org/2000/svg">
<path d="M46.64 20.3125H40.0277L38.3248 33.3125H31.4137V20.3125H28.008V17.0625H22.8993V8.9375H21.1156L20.2641 0.8125H15.3164L14.465 8.9375H12.6821V5.6875H5.87059V8.9375H4.16771V28.1458C2.07318 30.069 0.761963 32.7641 0.761963 35.75C0.761963 38.7359 2.07318 41.431 4.16771 43.3542V51.1875H51.8482V33.3125H48.3429L46.64 20.3125ZM45.1363 21.9375L45.3492 23.5625H41.3185L41.5314 21.9375H45.1363ZM41.1056 25.1875H45.5621L46.6264 33.3125H40.0405L41.1056 25.1875ZM29.7108 33.3125H22.5903C21.6273 29.4458 18.4378 26.4014 14.385 25.4824V21.9375H29.7108V33.3125ZM14.9929 44.1521C15.4637 43.4054 15.8639 42.4897 16.1772 41.4375H19.0491C17.9883 42.6619 16.5885 43.6028 14.9929 44.1521ZM4.61131 41.4375H7.48321C7.79654 42.4897 8.19587 43.4054 8.66756 44.1521C7.07282 43.6028 5.67306 42.6619 4.61131 41.4375ZM8.66841 27.3479C8.19672 28.0946 7.79739 29.0103 7.48406 30.0625H4.61131C5.67306 28.8381 7.07282 27.8972 8.66841 27.3479ZM9.27634 15.4375H5.87059V13.8125H9.27634V15.4375ZM9.27634 17.0625V18.6875H5.87059V17.0625H9.27634ZM9.27634 20.3125V21.9375H5.87059V20.3125H9.27634ZM16.9205 34.9375C16.8814 33.7846 16.7639 32.6926 16.5723 31.6875H20.162C20.695 32.6796 21.0424 33.7756 21.153 34.9375H16.9205ZM8.44278 34.9375C8.48706 33.7618 8.62754 32.6698 8.83444 31.6875H14.8269C15.0346 32.6698 15.1742 33.7618 15.2185 34.9375H8.44278ZM15.2185 36.5625C15.1742 37.7382 15.0338 38.8302 14.8269 39.8125H8.83444C8.62669 38.8302 8.48706 37.7382 8.44278 36.5625H15.2185ZM16.1772 30.0625C15.8639 29.0103 15.4646 28.0946 14.9929 27.3479C16.5885 27.8964 17.9883 28.8381 19.0491 30.0625H16.1772ZM14.3926 30.0625H9.26783C9.93961 28.0532 10.9154 26.8125 11.8298 26.8125C12.7442 26.8125 13.7208 28.0532 14.3926 30.0625ZM7.089 31.6875C6.89742 32.6926 6.77993 33.7846 6.74076 34.9375H2.50826C2.61895 33.7756 2.96548 32.6796 3.49934 31.6875H7.089ZM6.74076 36.5625C6.77993 37.7154 6.89742 38.8074 7.089 39.8125H3.49848C2.96548 38.8204 2.6181 37.7244 2.50741 36.5625H6.74076ZM9.26868 41.4375H14.3935C13.7217 43.4468 12.7459 44.6875 11.8315 44.6875C10.9171 44.6875 9.94046 43.4468 9.26868 41.4375ZM20.1628 39.8125H16.5732C16.7647 38.8074 16.8822 37.7154 16.9214 36.5625H21.1539C21.0432 37.7244 20.6958 38.8204 20.1628 39.8125ZM26.3051 20.3125H17.7907V18.6875H26.3051V20.3125ZM21.1965 17.0625H16.0878V20.3125H12.6821V25.2289C12.4003 25.2078 12.1184 25.1875 11.8307 25.1875C11.5429 25.1875 11.261 25.2078 10.9792 25.2289V10.5625H21.1965V17.0625ZM16.8584 2.4375H18.7222L19.4033 8.9375H16.1764L16.8584 2.4375ZM7.57346 7.3125H10.9792V8.9375H7.57346V7.3125ZM9.27634 10.5625V12.1875H5.87059V10.5625H9.27634ZM5.87059 23.5625H9.27634V25.4824C8.04942 25.7603 6.90253 26.2307 5.87059 26.8637V23.5625ZM5.87059 44.6363C7.59305 45.6917 9.63565 46.3125 11.8307 46.3125C14.0257 46.3125 16.0683 45.6917 17.7907 44.6363V49.5625H5.87059V44.6363ZM26.3051 49.5625H22.8993V43.0625H26.3051V49.5625ZM36.5223 49.5625H33.1166V43.0625H36.5223V49.5625ZM46.7396 49.5625H43.3339V43.0625H46.7396V49.5625ZM48.4425 49.5625V41.4375H41.631V49.5625H38.2252V41.4375H31.4137V49.5625H28.008V41.4375H21.1965V49.5625H19.4936V43.3542C20.9989 41.9721 22.0913 40.1903 22.5903 38.1875H50.1454V49.5625H48.4425ZM50.1454 36.5625H22.8559C22.8781 36.2936 22.8993 36.0246 22.8993 35.75C22.8993 35.4754 22.8781 35.2064 22.8559 34.9375H50.1454V36.5625Z" fill="white"/>
</svg>
