<svg width="59" height="55" viewBox="0 0 59 55" fill="none" xmlns="http://www.w3.org/2000/svg">
<g clip-path="url(#clip0)">
<path d="M48.6654 4.41245C44.2616 4.41245 40.782 7.78478 40.782 11.9872C40.782 16.1897 44.3159 19.5102 48.6654 19.5102C53.0149 19.5102 56.6032 16.1378 56.6032 11.9354C56.6032 7.7329 53.0693 4.41245 48.6654 4.41245ZM48.6654 17.8499C45.2402 17.8499 42.4674 15.2039 42.4674 11.9354C42.4674 8.66678 45.2946 6.07267 48.6654 6.07267C52.0906 6.07267 54.8634 8.71866 54.8634 11.9872C54.8634 15.2558 52.0906 17.8499 48.6654 17.8499Z" fill="white"/>
<path d="M51.1664 13.1286C51.112 12.973 51.112 12.8692 51.0033 12.7136C50.9489 12.6098 50.8945 12.4542 50.7858 12.3504C50.677 12.2466 50.6227 12.1429 50.5139 12.0391C50.4052 11.9353 50.2965 11.8316 50.1334 11.7797C50.0246 11.6759 49.8615 11.6241 49.7528 11.5722C49.5897 11.5203 49.4809 11.4165 49.3178 11.3646C49.1547 11.3128 48.9916 11.2609 48.8829 11.209C48.8285 11.209 48.7198 11.1571 48.6654 11.1052C48.611 11.0534 48.5023 11.0534 48.4479 11.0015C48.3936 10.9496 48.2848 10.9496 48.2305 10.8977C48.1761 10.8458 48.1217 10.7939 48.0674 10.7421C48.013 10.6902 47.9586 10.6383 47.9586 10.5345C47.9043 10.4826 47.9043 10.3789 47.9043 10.327C47.9043 10.2232 47.9043 10.1714 47.9043 10.0676C47.9043 10.0157 47.9586 9.91194 47.9586 9.86006C48.013 9.80818 48.013 9.70442 48.0674 9.65253C48.1217 9.60065 48.1761 9.54877 48.2305 9.49689C48.2848 9.44501 48.3936 9.39312 48.5023 9.39312C48.6111 9.34124 48.6654 9.34124 48.7742 9.34124C48.8285 9.34124 48.8829 9.34124 48.9373 9.34124C48.9916 9.34124 49.046 9.34124 49.1004 9.34124C49.2091 9.34124 49.2635 9.34124 49.3722 9.39312C49.4809 9.39312 49.5897 9.445 49.6441 9.445C49.6984 9.445 49.8072 9.49689 49.8615 9.49689C49.9703 9.49689 50.0246 9.54877 50.079 9.54877L50.3508 9.65253L50.4052 9.34124L50.5139 8.51113V8.3036L50.2965 8.25172C50.2421 8.25172 50.1334 8.19983 50.079 8.19983C50.0246 8.19983 49.9703 8.14795 49.8615 8.14795C49.8072 8.14795 49.6984 8.09607 49.5897 8.09607C49.4809 8.09607 49.4266 8.04419 49.3178 8.04419H49.2635V7.31784V7.05843H48.9916H48.2305H47.9586V7.31784V8.09607H47.9043C47.7412 8.14795 47.5781 8.19983 47.4149 8.3036C47.2518 8.35548 47.1431 8.45924 47.0344 8.56301C46.9256 8.66677 46.8169 8.77054 46.7082 8.92618C46.5994 9.02995 46.5451 9.18559 46.4907 9.34124C46.4363 9.49689 46.382 9.65253 46.3276 9.80818C46.2732 9.96383 46.2732 10.1714 46.2732 10.327C46.2732 10.4826 46.2732 10.5864 46.3276 10.7421C46.382 10.8977 46.3819 11.0015 46.4907 11.1571C46.5451 11.2609 46.6538 11.4165 46.7082 11.5203C46.8169 11.6241 46.8713 11.7278 46.98 11.8316C47.0887 11.9353 47.1975 12.0391 47.3606 12.091C47.4693 12.1948 47.6324 12.2466 47.7412 12.2985C47.9043 12.3504 48.0674 12.4542 48.1761 12.5061C48.3392 12.5579 48.5023 12.6098 48.6111 12.6617C48.6654 12.6617 48.7742 12.7136 48.8285 12.7655C48.8829 12.8173 48.9916 12.8173 49.046 12.8692C49.1004 12.9211 49.1547 12.973 49.2091 12.973C49.2635 13.0249 49.3178 13.0768 49.3722 13.1286C49.4266 13.1805 49.4266 13.2324 49.4809 13.3362C49.4809 13.388 49.5353 13.4918 49.5353 13.5956C49.5353 13.6993 49.5353 13.7512 49.5353 13.855C49.5353 13.9069 49.4809 14.0106 49.4266 14.0625C49.3722 14.1144 49.3178 14.1663 49.2635 14.2182C49.2091 14.27 49.1547 14.3219 49.046 14.3738C48.9916 14.4257 48.8829 14.4257 48.8285 14.4776C48.7742 14.4776 48.6654 14.5295 48.5567 14.5295C48.5023 14.5295 48.4479 14.5295 48.3392 14.5295C48.2848 14.5295 48.1761 14.5295 48.1217 14.5295C48.013 14.5295 47.9043 14.5295 47.8499 14.5295C47.7412 14.5295 47.6324 14.4776 47.5781 14.4776C47.4693 14.4776 47.3606 14.4257 47.2518 14.3738C47.1431 14.3219 47.0344 14.3219 46.9256 14.27C46.8713 14.27 46.8169 14.2182 46.7625 14.2182C46.7082 14.2182 46.6538 14.1663 46.5994 14.1663L46.2732 14.0106L46.2188 14.3738L46.1101 15.3077V15.4633L46.2732 15.5152C46.4907 15.4633 46.5994 15.5152 46.7625 15.5671C46.8713 15.619 47.0344 15.6709 47.1431 15.6709C47.2518 15.7227 47.4149 15.7227 47.5781 15.7746C47.7412 15.8265 47.8499 15.8265 48.013 15.8265H48.1217V16.6047V16.8642H48.3936H49.1547H49.4266V16.6047V15.7746H49.4809C49.644 15.7227 49.8072 15.6709 49.9703 15.5671C50.1334 15.5152 50.2421 15.4115 50.4052 15.3077C50.5139 15.2039 50.6227 15.1002 50.7314 14.9445C50.8402 14.8407 50.8945 14.6851 51.0033 14.5295C51.0576 14.3738 51.112 14.2182 51.1664 14.0625C51.2207 13.9069 51.2207 13.7512 51.2207 13.5437C51.2207 13.388 51.2207 13.2843 51.1664 13.1286Z" fill="white"/>
<path d="M44.8595 20.4959C44.5877 20.1327 43.9897 20.0809 43.6091 20.3403L34.8014 27.0331L23.4384 22.5193C23.1665 22.4155 22.8403 22.4674 22.6228 22.6231L10.4443 30.9242C10.0637 31.1836 9.95497 31.7024 10.2268 32.0656C10.3899 32.325 10.6618 32.4288 10.9336 32.4288C11.0967 32.4288 11.2598 32.3769 11.4229 32.2732L23.2209 24.2314L34.6383 28.7452C34.9101 28.8489 35.2907 28.797 35.5082 28.6414L44.6964 21.6892C45.077 21.4298 45.1314 20.8591 44.8595 20.4959Z" fill="white"/>
<path d="M57.5818 48.9273H53.5585V24.9059C53.5585 24.4389 53.178 24.0758 52.6886 24.0758H44.6965C44.2072 24.0758 43.8266 24.4389 43.8266 24.9059V48.9273H40.8907V33.207C40.8907 32.7401 40.5101 32.3769 40.0208 32.3769H31.9742C31.4849 32.3769 31.1043 32.7401 31.1043 33.207V48.9273H28.1684V31.9619C28.1684 31.4949 27.7879 31.1317 27.2986 31.1317H19.3064C18.8171 31.1317 18.4365 31.4949 18.4365 31.9619V48.9273H15.5006V36.8388C15.5006 36.3718 15.12 36.0087 14.6307 36.0087H6.58415C6.09484 36.0087 5.71426 36.3718 5.71426 36.8388V48.9273H1.63662C1.1473 48.9273 0.766724 49.2905 0.766724 49.7574C0.766724 50.2244 1.1473 50.5876 1.63662 50.5876H6.52979H14.522H19.3064H27.2986H31.9742H39.9664H44.6421H52.6343H57.5274C58.0168 50.5876 58.3973 50.2244 58.3973 49.7574C58.4517 49.2905 58.0711 48.9273 57.5818 48.9273ZM13.7064 48.9273H7.45405V37.6689H13.7064V48.9273ZM26.4287 48.9273H20.1763V32.792H26.4287V48.9273ZM39.0965 48.9273H32.8441V34.0371H39.0965V48.9273ZM51.8187 48.9273H45.5664V25.736H51.8187V48.9273Z" fill="white"/>
</g>
<defs>
<clipPath id="clip0">
<rect width="57.6358" height="55" fill="white" transform="translate(0.766724)"/>
</clipPath>
</defs>
</svg>
