<svg width="55" height="51" viewBox="0 0 55 51" fill="none" xmlns="http://www.w3.org/2000/svg">
<path d="M54.3546 26.3226V19.7223C54.3546 17.8919 53.1201 16.3086 51.2833 15.7829L45.7346 14.1943V12.9448C47.2957 11.9029 48.3206 10.1778 48.3206 8.22661V5.75806C48.3206 2.58302 45.6138 0 42.2866 0C38.9594 0 36.2526 2.58302 36.2526 5.75806V8.22581C36.2526 10.1778 37.2775 11.9029 38.8386 12.944V14.1935L33.9486 15.5937C32.1135 14.0277 29.7754 13.1613 27.2929 13.1613C24.8205 13.1613 22.5586 14.0256 20.8106 15.4499L16.4265 14.1943V12.9448C17.9877 11.9029 19.0126 10.1778 19.0126 8.22661V5.75806C19.0126 2.58302 16.3057 0 12.9785 0C9.65133 0 6.94453 2.58302 6.94453 5.75806V8.22581C6.94453 10.1778 7.96942 11.9029 9.53054 12.944V14.1935L3.98182 15.7821C2.14502 16.3086 0.910522 17.8919 0.910522 19.7223V26.3226H2.63453V19.7223C2.63453 18.6241 3.37489 17.6738 4.47764 17.3589L10.028 15.7696C10.5298 16.3914 11.5003 17.2742 12.9785 17.2742C14.4567 17.2742 15.4273 16.3914 15.929 15.7696L19.4642 16.7814C18.3421 18.1281 17.5945 19.7672 17.3677 21.5606C16.267 20.4444 14.7084 19.7419 12.9785 19.7419C9.65133 19.7419 6.94453 22.325 6.94453 25.5V27.9677C6.94453 29.9198 7.96942 31.6449 9.53054 32.6859V33.9355L3.98182 35.524C2.14502 36.0506 0.910522 37.6339 0.910522 39.4642V46.8871H11.2545C11.7293 46.8871 12.1165 47.2566 12.1165 47.7097V51H43.1486V47.7097C43.1486 47.2566 43.5358 46.8871 44.0106 46.8871H54.3546V39.4642C54.3546 37.6339 53.1201 36.0506 51.2833 35.5248L45.7346 33.9363V32.6867C47.2957 31.6449 48.3206 29.9198 48.3206 27.9685V25.5008C48.3206 22.3258 45.6138 19.7427 42.2866 19.7427C40.5988 19.7427 39.073 20.4091 37.9766 21.4783V20.6987C37.9766 19.074 37.0514 17.6116 35.6078 16.8384L39.3361 15.7704C39.8378 16.3914 40.8084 17.2742 42.2866 17.2742C43.7648 17.2742 44.7354 16.3914 45.2371 15.7696L50.7883 17.3589C51.8902 17.6738 52.6306 18.6241 52.6306 19.7223V26.3226H54.3546ZM12.9785 1.64516C15.3549 1.64516 17.2885 3.49034 17.2885 5.75806H13.3355C12.7879 5.75806 12.2508 5.54599 11.864 5.17647L11.2545 4.59488L10.6451 5.17647C10.2583 5.54599 9.7212 5.75806 9.17361 5.75806H8.66854C8.66854 3.49034 10.6021 1.64516 12.9785 1.64516ZM8.66854 8.22581V7.40323H9.17361C9.9245 7.40323 10.6417 7.19758 11.2545 6.8136C11.8674 7.19758 12.5846 7.40323 13.3355 7.40323H17.2885V8.22581C17.2885 10.4935 15.3549 12.3387 12.9785 12.3387C10.6021 12.3387 8.66854 10.4935 8.66854 8.22581ZM12.9785 15.629C12.0622 15.629 11.4684 14.8944 11.2545 14.5803V13.7421C11.8009 13.8975 12.3796 13.9839 12.9785 13.9839C13.5775 13.9839 14.1562 13.8975 14.7025 13.7413V14.5795C14.4887 14.8952 13.8948 15.629 12.9785 15.629ZM36.6731 30.0668C37.1121 31.1307 37.8697 32.0405 38.8386 32.6867V33.9363L33.2907 35.5248C33.108 35.5766 32.9304 35.6441 32.757 35.7188L31.9426 35.5397V33.919C32.8639 33.2125 33.59 32.2847 34.0357 31.2211C35.0286 31.138 35.9596 30.7347 36.6731 30.0668ZM27.6326 35.371C28.5472 35.371 29.4197 35.1967 30.2186 34.8866V35.7823L27.6326 37.6331L25.0466 35.7823V34.8866C25.8454 35.1967 26.718 35.371 27.6326 35.371ZM23.988 37.0812L26.0896 38.5858L23.9278 39.8237L23.3811 37.2153L23.988 37.0812ZM26.6801 43.5968H28.5851L29.2556 49.3548H26.0096L26.6801 43.5968ZM28.7349 41.9516H26.5294L26.0344 40.535L27.6326 39.6204L29.2299 40.535L28.7349 41.9516ZM29.1756 38.5858L31.2771 37.0812L31.8841 37.2145L31.3373 39.8229L29.1756 38.5858ZM35.5804 28.8052C35.282 29.1177 34.9028 29.3366 34.4915 29.4699C34.5155 29.2462 34.5286 29.0197 34.5286 28.7903V24.8541C35.4562 25.1899 36.1465 25.9687 36.2395 26.8994C36.3102 27.6075 36.0766 28.2834 35.5804 28.8052ZM32.8046 28.7903C32.8046 31.5123 30.485 33.7258 27.6326 33.7258C24.7801 33.7258 22.4606 31.5123 22.4606 28.7903V24.6774H25.3871C27.2655 24.6774 29.0935 24.23 30.7279 23.3753L31.4097 24.6774H32.8046V28.7903ZM20.7736 29.4699C20.3624 29.3366 19.9831 29.1177 19.6847 28.8052C19.1885 28.2842 18.9549 27.6075 19.0256 26.9002C19.1186 25.9695 19.8089 25.1899 20.7366 24.8549V28.7903C20.7366 29.0197 20.7496 29.2462 20.7736 29.4699ZM21.2294 31.2211C21.6743 32.2847 22.4004 33.2125 23.3226 33.919V35.5397L22.5081 35.7188C22.3339 35.6441 22.1571 35.5774 21.9753 35.5248L16.4265 33.9363V32.6867C17.3946 32.0405 18.1531 31.1307 18.5921 30.0668C19.3055 30.7347 20.2365 31.138 21.2294 31.2211ZM12.9785 21.3871C15.3549 21.3871 17.2885 23.2323 17.2885 25.5H16.7835C16.2359 25.5 15.6988 25.2879 15.312 24.9184L14.7025 24.3368L14.0931 24.9184C13.7063 25.2879 13.1692 25.5 12.6216 25.5H8.66854C8.66854 23.2323 10.6021 21.3871 12.9785 21.3871ZM8.66854 27.9677V27.1452H12.6216C13.3725 27.1452 14.0897 26.9395 14.7025 26.5555C15.3154 26.9395 16.0326 27.1452 16.7835 27.1452H17.2885V27.9677C17.2885 30.2355 15.3549 32.0806 12.9785 32.0806C10.6021 32.0806 8.66854 30.2355 8.66854 27.9677ZM12.9785 33.7258C13.5775 33.7258 14.1562 33.6395 14.7025 33.4832V34.3215C14.4887 34.6371 13.8948 35.371 12.9785 35.371C12.0622 35.371 11.4684 34.6363 11.2545 34.3223V33.484C11.8009 33.6395 12.3796 33.7258 12.9785 33.7258ZM11.2545 45.2419H7.80653V39.4839H6.08253V45.2419H2.63453V39.4642C2.63453 38.3661 3.37489 37.4158 4.47764 37.1009L10.028 35.5115C10.5298 36.1333 11.5003 37.0161 12.9785 37.0161C14.4567 37.0161 15.4273 36.1333 15.929 35.5115L19.1977 36.4478L16.7936 36.9768C14.0396 37.5837 12.1165 39.8911 12.1165 42.5874V43.5968H13.8405V42.5874C13.8405 40.6611 15.2148 39.0135 17.1816 38.5798L21.7004 37.5845L22.7165 42.4344L24.52 41.4022L25.0301 42.863L24.2751 49.3548H19.8746V42.7742H18.1506V49.3548H13.8405V47.7097C13.8405 46.3493 12.6801 45.2419 11.2545 45.2419ZM50.7875 37.1009C51.8902 37.4158 52.6306 38.3661 52.6306 39.4642V45.2419H49.1826V39.4839H47.4586V45.2419H44.0106C42.585 45.2419 41.4246 46.3493 41.4246 47.7097V49.3548H37.1146V42.7742H35.3906V49.3548H30.9901L30.2341 42.863L30.7443 41.4022L32.5478 42.4344L33.5639 37.5845L38.0835 38.5798C40.0504 39.0135 41.4246 40.6611 41.4246 42.5874V43.5968H43.1486V42.5874C43.1486 39.8911 41.2255 37.5837 38.4716 36.9768L36.0674 36.4478L39.3361 35.5115C39.8378 36.1333 40.8084 37.0161 42.2866 37.0161C43.7648 37.0161 44.7354 36.1333 45.2371 35.5115L50.7875 37.1009ZM44.0106 34.3223C43.7968 34.6372 43.2029 35.371 42.2866 35.371C41.3686 35.371 40.7739 34.6339 40.5626 34.3223V33.4832C41.1089 33.6395 41.6877 33.7258 42.2866 33.7258C42.8855 33.7258 43.4643 33.6395 44.0106 33.4832V34.3223ZM42.2866 32.0806C39.9102 32.0806 37.9766 30.2355 37.9766 27.9677V27.1452H38.4817C39.2325 27.1452 39.9498 26.9395 40.5626 26.5555C41.1754 26.9395 41.8926 27.1452 42.6435 27.1452H46.5966V27.9677C46.5966 30.2355 44.663 32.0806 42.2866 32.0806ZM42.2866 21.3871C44.663 21.3871 46.5966 23.2323 46.5966 25.5H42.6435C42.0959 25.5 41.5589 25.2879 41.1721 24.9184L40.5626 24.3368L39.9531 24.9184C39.5663 25.2879 39.0293 25.5 38.4817 25.5H37.9766C37.9766 23.2323 39.9102 21.3871 42.2866 21.3871ZM36.2526 23.9247C35.4899 23.3737 34.5425 23.0323 33.5184 23.0323H32.4754L31.4152 21.0087L30.6029 21.5253C29.0523 22.5117 27.2491 23.0323 25.3871 23.0323H21.7467C20.7227 23.0323 19.7752 23.3737 19.0126 23.9247V22.7081C19.0126 18.3518 22.7278 14.8065 27.2929 14.8065C29.5047 14.8065 31.5848 15.6282 33.1484 17.1204L34.0631 17.9931L34.2563 18.055C35.4499 18.435 36.2526 19.4969 36.2526 20.6979V23.9247ZM42.2866 1.64516C44.663 1.64516 46.5966 3.49034 46.5966 5.75806H46.0915C45.5439 5.75806 45.0069 5.54599 44.6201 5.17647L44.0106 4.59488L43.4011 5.17647C43.0143 5.54599 42.4773 5.75806 41.9297 5.75806H37.9766C37.9766 3.49034 39.9102 1.64516 42.2866 1.64516ZM37.9766 8.22581V7.40323H41.9297C42.6806 7.40323 43.3978 7.19758 44.0106 6.8136C44.6234 7.19758 45.3406 7.40323 46.0915 7.40323H46.5966V8.22581C46.5966 10.4935 44.663 12.3387 42.2866 12.3387C39.9102 12.3387 37.9766 10.4935 37.9766 8.22581ZM42.2866 15.629C41.3686 15.629 40.7739 14.892 40.5626 14.5803V13.7413C41.1089 13.8975 41.6877 13.9839 42.2866 13.9839C42.8855 13.9839 43.4643 13.8975 44.0106 13.7413V14.5795C43.7968 14.8952 43.2029 15.629 42.2866 15.629Z" fill="white"/>
<path d="M20.7364 0H22.4604V1.64516H20.7364V0Z" fill="white"/>
<path d="M20.7364 3.29033H22.4604V12.3387H20.7364V3.29033Z" fill="white"/>
<path d="M32.8048 0H34.5288V1.64516H32.8048V0Z" fill="white"/>
<path d="M32.8048 3.29033H34.5288V12.3387H32.8048V3.29033Z" fill="white"/>
<path d="M24.1846 3.29033H25.9086V9.04839H24.1846V3.29033Z" fill="white"/>
<path d="M24.1846 10.6936H25.9086V12.3387H24.1846V10.6936Z" fill="white"/>
<path d="M29.3566 3.29033H31.0806V9.04839H29.3566V3.29033Z" fill="white"/>
<path d="M29.3566 10.6936H31.0806V12.3387H29.3566V10.6936Z" fill="white"/>
</svg>
