<svg width="20" height="20" viewBox="0 0 20 20" fill="none" xmlns="http://www.w3.org/2000/svg">
<path d="M10.72 8.79999C10.24 8.67999 9.75999 8.43999 9.39999 8.07999C9.03999 7.95999 8.91999 7.59999 8.91999 7.35999C8.91999 7.11999 9.03999 6.75999 9.27999 6.63999C9.63999 6.39999 10 6.15999 10.36 6.27999C11.08 6.27999 11.68 6.63999 12.04 7.11999L13.12 5.67999C12.76 5.31999 12.4 5.07999 12.04 4.83999C11.68 4.59999 11.2 4.47999 10.72 4.47999V2.79999H9.27999V4.47999C8.67999 4.59999 8.07999 4.95999 7.59999 5.43999C7.11999 6.03999 6.75999 6.75999 6.87999 7.47999C6.87999 8.19999 7.11999 8.91999 7.59999 9.39999C8.19999 9.99999 9.03999 10.36 9.75999 10.72C10.12 10.84 10.6 11.08 10.96 11.32C11.2 11.56 11.32 11.92 11.32 12.28C11.32 12.64 11.2 13 10.96 13.36C10.6 13.72 10.12 13.84 9.75999 13.84C9.27999 13.84 8.67999 13.72 8.31999 13.36C7.95999 13.12 7.59999 12.76 7.35999 12.4L6.15999 13.72C6.51999 14.2 6.87999 14.56 7.35999 14.92C7.95999 15.28 8.67999 15.64 9.39999 15.64V17.2H10.72V15.4C11.44 15.28 12.04 14.92 12.52 14.44C13.12 13.84 13.48 12.88 13.48 12.04C13.48 11.32 13.24 10.48 12.64 9.99999C12.04 9.39999 11.44 9.03999 10.72 8.79999ZM9.99999 0.399994C4.71999 0.399994 0.399994 4.71999 0.399994 9.99999C0.399994 15.28 4.71999 19.6 9.99999 19.6C15.28 19.6 19.6 15.28 19.6 9.99999C19.6 4.71999 15.28 0.399994 9.99999 0.399994ZM9.99999 18.28C5.43999 18.28 1.71999 14.56 1.71999 9.99999C1.71999 5.43999 5.43999 1.71999 9.99999 1.71999C14.56 1.71999 18.28 5.43999 18.28 9.99999C18.28 14.56 14.56 18.28 9.99999 18.28Z" fill="#4E33F2"/>
</svg>
