<svg width="21" height="20" viewBox="0 0 21 20" fill="none" xmlns="http://www.w3.org/2000/svg">
<path d="M15.6094 16.6094C16.0156 16.2031 16.4844 16 17.0156 16C17.5469 16 18 16.2031 18.375 16.6094C18.7812 17.0156 18.9844 17.4844 18.9844 18.0156C18.9844 18.5469 18.7812 19.0156 18.375 19.4219C18 19.7969 17.5469 19.9844 17.0156 19.9844C16.4844 19.9844 16.0156 19.7969 15.6094 19.4219C15.2031 19.0156 15 18.5469 15 18.0156C15 17.4844 15.2031 17.0156 15.6094 16.6094ZM0.984375 0.015625H4.26562L5.20312 1.98438H20.0156C20.2969 1.98438 20.5312 2.09375 20.7188 2.3125C20.9062 2.5 21 2.73438 21 3.01562C21 3.04688 20.9531 3.20312 20.8594 3.48438L17.2969 9.95312C16.9219 10.6406 16.3438 10.9844 15.5625 10.9844H8.10938L7.21875 12.625L7.17188 12.7656C7.17188 12.9219 7.25 13 7.40625 13H18.9844V15.0156H6.98438C6.45312 15.0156 5.98438 14.8125 5.57812 14.4062C5.20312 14 5.01562 13.5312 5.01562 13C5.01562 12.6875 5.09375 12.375 5.25 12.0625L6.60938 9.57812L3 1.98438H0.984375V0.015625ZM5.57812 16.6094C5.98438 16.2031 6.45312 16 6.98438 16C7.51562 16 7.98438 16.2031 8.39062 16.6094C8.79688 17.0156 9 17.4844 9 18.0156C9 18.5469 8.79688 19.0156 8.39062 19.4219C7.98438 19.7969 7.51562 19.9844 6.98438 19.9844C6.45312 19.9844 5.98438 19.7969 5.57812 19.4219C5.20312 19.0156 5.01562 18.5469 5.01562 18.0156C5.01562 17.4844 5.20312 17.0156 5.57812 16.6094Z" fill="white"/>
</svg>
